# This file uses centimeters as units for non-parametric coordinates.

mtllib SM_PicketFence_02.mtl
g default
v 0.923663 0.695143 0.020419
v 0.923663 0.847585 0.020419
v -0.942740 0.695143 0.020419
v -0.942740 0.847585 0.020419
v -0.942740 0.695143 -0.016425
v -0.942740 0.832586 -0.016425
v 0.923663 0.695143 -0.016425
v 0.923663 0.822421 -0.016425
v 0.041245 0.666259 0.020419
v -0.095805 0.818700 0.020419
v 0.053960 0.666259 -0.016425
v -0.083091 0.793829 -0.016423
v 0.990884 -0.007323 -0.045740
v 0.945144 -0.007323 -0.064685
v 0.899404 -0.007323 -0.045740
v 0.880456 -0.007323 -0.000001
v 0.899404 -0.007323 0.045740
v 0.945144 -0.007323 0.064685
v 0.990884 -0.007323 0.045740
v 1.009830 -0.007323 -0.000001
v 0.990884 0.998782 -0.045740
v 0.945144 0.998782 -0.064685
v 0.899404 0.998782 -0.045740
v 0.880456 0.998782 -0.000001
v 0.899404 0.998782 0.045740
v 0.945144 0.998782 0.064685
v 0.990884 0.998782 0.045740
v 1.009830 0.998782 -0.000001
v 0.945144 0.998782 -0.000001
v 1.028243 0.592343 -0.045740
v 0.982505 0.593493 -0.064685
v 0.936765 0.584043 -0.045740
v 0.917819 0.569528 -0.000001
v 0.936765 0.558450 0.045740
v 0.982505 0.557301 0.064685
v 1.028243 0.566751 0.045740
v 1.047191 0.581266 -0.000001
v 0.923663 0.257481 0.020419
v 0.923663 0.409923 0.020419
v -0.942740 0.257481 0.020419
v -0.942740 0.409923 0.020419
v -0.942740 0.257481 -0.016425
v -0.942740 0.409923 -0.016425
v 0.923663 0.257481 -0.016425
v 0.923663 0.409923 -0.016425
v 0.294541 0.242649 0.020419
v 0.446982 0.379700 0.020419
v 0.294541 0.229935 -0.016425
v 0.446982 0.366986 -0.016423
v -0.928216 -0.007323 -0.045740
v -0.973958 -0.007323 -0.064685
v -1.019696 -0.007323 -0.045740
v -1.038642 -0.007323 -0.000001
v -1.019696 -0.007323 0.045740
v -0.973958 -0.007323 0.064685
v -0.928216 -0.007323 0.045740
v -0.909270 -0.007323 -0.000001
v -0.928216 0.998782 -0.045740
v -0.973958 0.998782 -0.064685
v -1.019696 0.998782 -0.045740
v -1.038642 0.998782 -0.000001
v -1.019696 0.998782 0.045740
v -0.973958 0.998782 0.064685
v -0.928216 0.998782 0.045740
v -0.909270 0.998782 -0.000001
v -0.973958 0.998782 -0.000001
v -0.936765 0.592343 -0.045740
v -0.982505 0.593493 -0.064685
v -1.028245 0.584043 -0.045740
v -1.047191 0.569528 -0.000001
v -1.028245 0.558450 0.045740
v -0.982505 0.557301 0.064685
v -0.936765 0.566751 0.045740
v -0.917821 0.581266 -0.000001
vt 0.109922 1.000000
vt 0.027786 1.000000
vt 0.027338 0.456638
vt 0.109135 0.530330
vt 0.129738 0.000237
vt 0.203911 0.000237
vt 0.202931 0.460277
vt 0.128897 0.530330
vt 0.006519 1.000000
vt 0.007500 0.456638
vt 0.129738 1.000000
vt 0.027786 0.000237
vt 0.109922 0.000237
vt 0.203911 1.000000
vt 0.006519 0.000237
vt 0.620291 0.002215
vt 0.646979 0.002215
vt 0.646979 0.316821
vt 0.620291 0.316821
vt 0.673594 0.002215
vt 0.673594 0.316821
vt 0.460320 0.002215
vt 0.486937 0.002215
vt 0.486937 0.316821
vt 0.460320 0.316821
vt 0.513548 0.002215
vt 0.513548 0.316821
vt 0.540139 0.002215
vt 0.540139 0.316821
vt 0.566769 0.002215
vt 0.566769 0.316821
vt 0.593512 0.002215
vt 0.593512 0.316821
vt 0.970052 0.060948
vt 0.945407 0.071156
vt 0.945407 0.036305
vt 0.920762 0.060948
vt 0.910554 0.036305
vt 0.920762 0.011660
vt 0.945407 0.001452
vt 0.970052 0.011660
vt 0.980259 0.036305
vt 0.646979 0.545404
vt 0.620291 0.545404
vt 0.673594 0.545404
vt 0.486937 0.545404
vt 0.460320 0.545404
vt 0.513548 0.545404
vt 0.540139 0.545404
vt 0.566769 0.545404
vt 0.593512 0.545404
vt 0.331136 0.997641
vt 0.249193 0.997641
vt 0.249640 0.739673
vt 0.331922 0.659666
vt 0.350906 0.000224
vt 0.424905 0.000224
vt 0.425883 0.741713
vt 0.351745 0.659666
vt 0.227976 0.997641
vt 0.226998 0.739673
vt 0.350906 0.997641
vt 0.249193 0.000224
vt 0.331136 0.000224
vt 0.424905 0.997641
vt 0.227976 0.000224
vt 0.845436 0.001630
vt 0.872098 0.001630
vt 0.872098 0.315725
vt 0.845436 0.315725
vt 0.898769 0.001630
vt 0.898769 0.315725
vt 0.685437 0.001630
vt 0.712116 0.001630
vt 0.712116 0.315725
vt 0.685437 0.315725
vt 0.738800 0.001630
vt 0.738800 0.315725
vt 0.765478 0.001630
vt 0.765478 0.315725
vt 0.792143 0.001630
vt 0.792143 0.315725
vt 0.818731 0.001630
vt 0.818731 0.315725
vt 0.968900 0.140824
vt 0.944256 0.151031
vt 0.944256 0.116180
vt 0.919611 0.140824
vt 0.909403 0.116180
vt 0.919611 0.091535
vt 0.944256 0.081327
vt 0.968900 0.091535
vt 0.979107 0.116180
vt 0.872098 0.543935
vt 0.845436 0.543935
vt 0.898769 0.543935
vt 0.712116 0.543935
vt 0.685437 0.543935
vt 0.738800 0.543935
vt 0.765478 0.543935
vt 0.792143 0.543935
vt 0.818731 0.543935
vn -0.000002 0.000000 1.000000
vn -0.000002 0.000000 1.000000
vn 0.000001 0.000000 1.000000
vn -0.000001 0.000000 1.000000
vn 0.000001 0.000008 -1.000000
vn 0.000001 0.000008 -1.000000
vn 0.000000 0.000008 -1.000000
vn -0.000002 0.000007 -1.000000
vn -0.023406 0.825189 -0.564372
vn -0.023406 0.825189 -0.564372
vn -0.002831 0.846525 -0.532341
vn 0.007511 0.856639 -0.515862
vn 0.032953 -0.999441 0.005686
vn 0.032953 -0.999441 0.005686
vn -0.006461 -0.999979 -0.001115
vn 0.006630 -0.999977 0.001144
vn -0.000001 0.000000 1.000000
vn 0.000001 0.000000 1.000000
vn 0.000002 0.000000 1.000000
vn 0.000002 0.000000 1.000000
vn -0.000002 0.000007 -1.000000
vn 0.000000 0.000008 -1.000000
vn -0.000003 0.000007 -1.000000
vn -0.000003 0.000007 -1.000000
vn 0.007511 0.856639 -0.515862
vn -0.002831 0.846525 -0.532341
vn 0.034939 0.881480 -0.470927
vn 0.034939 0.881480 -0.470927
vn 0.006630 -0.999977 0.001144
vn -0.006461 -0.999979 -0.001115
vn -0.029154 -0.999562 -0.005031
vn -0.029154 -0.999562 -0.005031
vn 0.382301 -0.023797 -0.923732
vn 0.382301 -0.023797 -0.923732
vn 0.382661 0.000643 -0.923889
vn 0.382647 -0.000694 -0.923894
vn 0.382301 -0.023797 -0.923732
vn -0.384691 0.024111 -0.922731
vn -0.382934 0.002993 -0.923771
vn 0.382661 0.000643 -0.923889
vn -0.384691 0.024111 -0.922731
vn -0.925544 0.059205 -0.373983
vn -0.924470 0.011696 -0.381076
vn -0.382934 0.002993 -0.923771
vn -0.925544 0.059205 -0.373983
vn -0.919619 0.060140 0.388180
vn -0.923423 0.009732 0.383660
vn -0.924470 0.011696 -0.381076
vn -0.919619 0.060140 0.388180
vn -0.382275 0.025270 0.923703
vn -0.382680 0.000598 0.923881
vn -0.923423 0.009732 0.383660
vn -0.382275 0.025270 0.923703
vn 0.384788 -0.025249 0.922660
vn 0.382382 0.003435 0.923998
vn -0.382680 0.000598 0.923881
vn 0.384788 -0.025249 0.922660
vn 0.925540 -0.059485 0.373948
vn 0.923084 0.012791 0.384386
vn 0.382382 0.003435 0.923998
vn 0.925540 -0.059485 0.373948
vn 0.382301 -0.023797 -0.923732
vn 0.382647 -0.000694 -0.923894
vn 0.923084 0.012791 0.384386
vn 0.000000 1.000000 0.000000
vn 0.000000 1.000000 0.000000
vn 0.000000 1.000000 0.000000
vn 0.000000 1.000000 0.000000
vn 0.000000 1.000000 -0.000001
vn 0.000000 1.000000 0.000000
vn 0.000000 1.000000 -0.000001
vn 0.000000 1.000000 -0.000001
vn 0.000000 1.000000 0.000000
vn 0.000000 1.000000 -0.000001
vn 0.000000 1.000000 0.000000
vn 0.000000 1.000000 0.000000
vn 0.000000 1.000000 0.000000
vn 0.000000 1.000000 0.000000
vn 0.000000 1.000000 0.000000
vn 0.000000 1.000000 0.000000
vn 0.000000 1.000000 0.000001
vn 0.000000 1.000000 0.000000
vn 0.000000 1.000000 0.000001
vn 0.000000 1.000000 0.000001
vn 0.000000 1.000000 0.000000
vn 0.000000 1.000000 0.000001
vn 0.000000 1.000000 0.000000
vn 0.000000 1.000000 0.000000
vn 0.382647 -0.000694 -0.923894
vn 0.382661 0.000643 -0.923889
vn 0.382780 0.035240 -0.923167
vn 0.382780 0.035240 -0.923167
vn 0.382661 0.000643 -0.923889
vn -0.382934 0.002993 -0.923771
vn -0.379382 -0.034571 -0.924594
vn 0.382780 0.035240 -0.923167
vn -0.382934 0.002993 -0.923771
vn -0.924470 0.011696 -0.381076
vn -0.916216 -0.081124 -0.392386
vn -0.379382 -0.034571 -0.924594
vn -0.924470 0.011696 -0.381076
vn -0.923423 0.009732 0.383660
vn -0.924324 -0.079432 0.373250
vn -0.916216 -0.081124 -0.392386
vn -0.923423 0.009732 0.383660
vn -0.382680 0.000598 0.923881
vn -0.382857 -0.032439 0.923238
vn -0.924324 -0.079432 0.373250
vn -0.382680 0.000598 0.923881
vn 0.382382 0.003435 0.923998
vn 0.379623 0.032472 0.924571
vn -0.382857 -0.032439 0.923238
vn 0.382382 0.003435 0.923998
vn 0.923084 0.012791 0.384386
vn 0.916292 0.080591 0.392318
vn 0.379623 0.032472 0.924571
vn 0.923084 0.012791 0.384386
vn 0.382647 -0.000694 -0.923894
vn 0.382780 0.035240 -0.923167
vn 0.916292 0.080591 0.392318
vn -0.000002 0.000000 1.000000
vn -0.000002 0.000000 1.000000
vn -0.000001 0.000000 1.000000
vn -0.000001 0.000000 1.000000
vn 0.000000 0.000006 -1.000000
vn 0.000000 0.000006 -1.000000
vn 0.000000 0.000007 -1.000000
vn 0.000000 0.000006 -1.000000
vn -0.075409 0.982632 -0.169550
vn -0.075409 0.982632 -0.169550
vn 0.000238 0.985438 -0.170034
vn -0.000166 0.985438 -0.170034
vn 0.033172 -0.984897 0.169936
vn 0.033172 -0.984897 0.169936
vn 0.000027 -0.985439 0.170029
vn -0.000050 -0.985439 0.170029
vn -0.000001 0.000000 1.000000
vn -0.000001 0.000000 1.000000
vn -0.000001 0.000000 1.000000
vn -0.000001 0.000000 1.000000
vn 0.000000 0.000006 -1.000000
vn 0.000000 0.000007 -1.000000
vn 0.000000 0.000008 -1.000000
vn 0.000000 0.000008 -1.000000
vn -0.000166 0.985438 -0.170034
vn 0.000238 0.985438 -0.170034
vn 0.025931 0.985107 -0.169977
vn 0.025931 0.985107 -0.169977
vn -0.000050 -0.985439 0.170029
vn 0.000027 -0.985439 0.170029
vn -0.016874 -0.985299 0.170005
vn -0.016874 -0.985299 0.170005
vn 0.382717 0.005450 -0.923850
vn 0.382717 0.005450 -0.923850
vn 0.382653 -0.000084 -0.923892
vn 0.382655 0.000082 -0.923891
vn 0.382717 0.005450 -0.923850
vn -0.382188 -0.005482 -0.924068
vn -0.382602 -0.000783 -0.923913
vn 0.382653 -0.000084 -0.923892
vn -0.382188 -0.005482 -0.924068
vn -0.923034 -0.013509 -0.384481
vn -0.923718 -0.002789 -0.383063
vn -0.382602 -0.000783 -0.923913
vn -0.923034 -0.013509 -0.384481
vn -0.924389 -0.013831 0.381200
vn -0.923974 -0.002142 0.382450
vn -0.923718 -0.002789 -0.383063
vn -0.924389 -0.013831 0.381200
vn -0.382724 -0.005789 0.923845
vn -0.382688 -0.000087 0.923878
vn -0.923974 -0.002142 0.382450
vn -0.382724 -0.005789 0.923845
vn 0.382172 0.005738 0.924074
vn 0.382757 -0.000795 0.923849
vn -0.382688 -0.000087 0.923878
vn 0.382172 0.005738 0.924074
vn 0.923026 0.013576 0.384499
vn 0.924039 -0.002933 0.382286
vn 0.382757 -0.000795 0.923849
vn 0.923026 0.013576 0.384499
vn 0.382717 0.005450 -0.923850
vn 0.382655 0.000082 -0.923891
vn 0.924039 -0.002933 0.382286
vn 0.000000 1.000000 0.000000
vn 0.000000 1.000000 0.000000
vn 0.000000 1.000000 0.000000
vn 0.000000 1.000000 0.000000
vn 0.000000 1.000000 -0.000001
vn 0.000000 1.000000 0.000000
vn 0.000000 1.000000 -0.000001
vn 0.000000 1.000000 -0.000001
vn 0.000000 1.000000 0.000000
vn 0.000000 1.000000 -0.000001
vn 0.000000 1.000000 0.000000
vn 0.000000 1.000000 0.000000
vn 0.000000 1.000000 0.000000
vn 0.000000 1.000000 0.000000
vn 0.000000 1.000000 0.000000
vn 0.000000 1.000000 0.000000
vn 0.000000 1.000000 0.000001
vn 0.000000 1.000000 0.000000
vn 0.000000 1.000000 0.000001
vn 0.000000 1.000000 0.000001
vn 0.000000 1.000000 0.000000
vn 0.000000 1.000000 0.000001
vn 0.000000 1.000000 0.000000
vn 0.000000 1.000000 0.000000
vn 0.382655 0.000082 -0.923891
vn 0.382653 -0.000084 -0.923892
vn 0.382540 -0.008058 -0.923904
vn 0.382540 -0.008058 -0.923904
vn 0.382653 -0.000084 -0.923892
vn -0.382602 -0.000783 -0.923913
vn -0.383354 0.007994 -0.923567
vn 0.382540 -0.008058 -0.923904
vn -0.382602 -0.000783 -0.923913
vn -0.923718 -0.002789 -0.383063
vn -0.924763 0.018734 -0.380082
vn -0.383354 0.007994 -0.923567
vn -0.923718 -0.002789 -0.383063
vn -0.923974 -0.002142 0.382450
vn -0.922949 0.018146 0.384495
vn -0.924763 0.018734 -0.380082
vn -0.923974 -0.002142 0.382450
vn -0.382688 -0.000087 0.923878
vn -0.382621 0.007418 0.923876
vn -0.922949 0.018146 0.384495
vn -0.382688 -0.000087 0.923878
vn 0.382757 -0.000795 0.923849
vn 0.383341 -0.007502 0.923576
vn -0.382621 0.007418 0.923876
vn 0.382757 -0.000795 0.923849
vn 0.924039 -0.002933 0.382286
vn 0.924764 -0.018613 0.380086
vn 0.383341 -0.007502 0.923576
vn 0.924039 -0.002933 0.382286
vn 0.382655 0.000082 -0.923891
vn 0.382540 -0.008058 -0.923904
vn 0.924764 -0.018613 0.380086
s off
g SM_PicketFence:SM_PicketFence1
usemtl lambert2SG
f 1/1/1 2/2/2 10/3/3 9/4/4
f 5/5/5 6/6/6 12/7/7 11/8/8
f 2/2/9 8/9/10 12/10/11 10/3/12
f 7/11/13 1/1/14 9/4/15 11/8/16
f 9/4/17 10/3/18 4/12/19 3/13/20
f 11/8/21 12/7/22 8/14/23 7/11/24
f 10/3/25 12/10/26 6/15/27 4/12/28
f 11/8/29 9/4/30 3/13/31 5/5/32
usemtl lambert3SG
f 13/16/33 14/17/34 31/18/35 30/19/36
f 14/17/37 15/20/38 32/21/39 31/18/40
f 15/22/41 16/23/42 33/24/43 32/25/44
f 16/23/45 17/26/46 34/27/47 33/24/48
f 17/26/49 18/28/50 35/29/51 34/27/52
f 18/28/53 19/30/54 36/31/55 35/29/56
f 19/30/57 20/32/58 37/33/59 36/31/60
f 20/32/61 13/16/62 30/19/63 37/33/64
f 21/34/65 22/35/66 29/36/67
f 22/35/68 23/37/69 29/36/70
f 23/37/71 24/38/72 29/36/73
f 24/38/74 25/39/75 29/36/76
f 25/39/77 26/40/78 29/36/79
f 26/40/80 27/41/81 29/36/82
f 27/41/83 28/42/84 29/36/85
f 28/42/86 21/34/87 29/36/88
f 30/19/89 31/18/90 22/43/91 21/44/92
f 31/18/93 32/21/94 23/45/95 22/43/96
f 32/25/97 33/24/98 24/46/99 23/47/100
f 33/24/101 34/27/102 25/48/103 24/46/104
f 34/27/105 35/29/106 26/49/107 25/48/108
f 35/29/109 36/31/110 27/50/111 26/49/112
f 36/31/113 37/33/114 28/51/115 27/50/116
f 37/33/117 30/19/118 21/44/119 28/51/120
usemtl lambert2SG
f 38/52/121 39/53/122 47/54/123 46/55/124
f 42/56/125 43/57/126 49/58/127 48/59/128
f 39/53/129 45/60/130 49/61/131 47/54/132
f 44/62/133 38/52/134 46/55/135 48/59/136
f 46/55/137 47/54/138 41/63/139 40/64/140
f 48/59/141 49/58/142 45/65/143 44/62/144
f 47/54/145 49/61/146 43/66/147 41/63/148
f 48/59/149 46/55/150 40/64/151 42/56/152
usemtl lambert3SG
f 50/67/153 51/68/154 68/69/155 67/70/156
f 51/68/157 52/71/158 69/72/159 68/69/160
f 52/73/161 53/74/162 70/75/163 69/76/164
f 53/74/165 54/77/166 71/78/167 70/75/168
f 54/77/169 55/79/170 72/80/171 71/78/172
f 55/79/173 56/81/174 73/82/175 72/80/176
f 56/81/177 57/83/178 74/84/179 73/82/180
f 57/83/181 50/67/182 67/70/183 74/84/184
f 58/85/185 59/86/186 66/87/187
f 59/86/188 60/88/189 66/87/190
f 60/88/191 61/89/192 66/87/193
f 61/89/194 62/90/195 66/87/196
f 62/90/197 63/91/198 66/87/199
f 63/91/200 64/92/201 66/87/202
f 64/92/203 65/93/204 66/87/205
f 65/93/206 58/85/207 66/87/208
f 67/70/209 68/69/210 59/94/211 58/95/212
f 68/69/213 69/72/214 60/96/215 59/94/216
f 69/76/217 70/75/218 61/97/219 60/98/220
f 70/75/221 71/78/222 62/99/223 61/97/224
f 71/78/225 72/80/226 63/100/227 62/99/228
f 72/80/229 73/82/230 64/101/231 63/100/232
f 73/82/233 74/84/234 65/102/235 64/101/236
f 74/84/237 67/70/238 58/95/239 65/102/240
